<mxfile host="app.diagrams.net" modified="2022-03-18T07:30:09.572Z" agent="5.0 (X11; Linux x86_64) AppleWebKit/537.36 (KHTML, like Gecko) Chrome/99.0.4844.51 Safari/537.36" etag="Z-LHX60o9Hl--KSbE0Bh" version="17.1.3" type="github">
  <diagram id="C5RBs43oDa-KdzZeNtuy" name="Page-1">
    <mxGraphModel dx="853" dy="485" grid="1" gridSize="10" guides="1" tooltips="1" connect="1" arrows="1" fold="1" page="1" pageScale="1" pageWidth="827" pageHeight="1169" math="0" shadow="0">
      <root>
        <mxCell id="WIyWlLk6GJQsqaUBKTNV-0" />
        <mxCell id="WIyWlLk6GJQsqaUBKTNV-1" parent="WIyWlLk6GJQsqaUBKTNV-0" />
        <mxCell id="e1glwPQ_6rmeAgvSiWPn-0" value="Start" style="ellipse;whiteSpace=wrap;html=1;" vertex="1" parent="WIyWlLk6GJQsqaUBKTNV-1">
          <mxGeometry x="254" y="40" width="120" height="40" as="geometry" />
        </mxCell>
        <mxCell id="e1glwPQ_6rmeAgvSiWPn-1" value="input array of numbers" style="shape=parallelogram;perimeter=parallelogramPerimeter;whiteSpace=wrap;html=1;fixedSize=1;" vertex="1" parent="WIyWlLk6GJQsqaUBKTNV-1">
          <mxGeometry x="250" y="120" width="120" height="60" as="geometry" />
        </mxCell>
        <mxCell id="e1glwPQ_6rmeAgvSiWPn-2" value="" style="endArrow=classic;html=1;rounded=0;entryX=0.5;entryY=0;entryDx=0;entryDy=0;" edge="1" parent="WIyWlLk6GJQsqaUBKTNV-1" target="e1glwPQ_6rmeAgvSiWPn-1">
          <mxGeometry width="50" height="50" relative="1" as="geometry">
            <mxPoint x="310" y="80" as="sourcePoint" />
            <mxPoint x="310" y="110" as="targetPoint" />
            <Array as="points">
              <mxPoint x="310" y="80" />
            </Array>
          </mxGeometry>
        </mxCell>
        <mxCell id="e1glwPQ_6rmeAgvSiWPn-3" value="" style="endArrow=classic;html=1;rounded=0;exitX=0.5;exitY=1;exitDx=0;exitDy=0;" edge="1" parent="WIyWlLk6GJQsqaUBKTNV-1" source="e1glwPQ_6rmeAgvSiWPn-1">
          <mxGeometry width="50" height="50" relative="1" as="geometry">
            <mxPoint x="350" y="180" as="sourcePoint" />
            <mxPoint x="310" y="210" as="targetPoint" />
            <Array as="points" />
          </mxGeometry>
        </mxCell>
        <mxCell id="e1glwPQ_6rmeAgvSiWPn-4" value="Initialize int index, int sum equal to 0" style="rounded=1;whiteSpace=wrap;html=1;" vertex="1" parent="WIyWlLk6GJQsqaUBKTNV-1">
          <mxGeometry x="254" y="210" width="120" height="60" as="geometry" />
        </mxCell>
        <mxCell id="e1glwPQ_6rmeAgvSiWPn-13" value="" style="edgeStyle=orthogonalEdgeStyle;rounded=0;orthogonalLoop=1;jettySize=auto;html=1;" edge="1" parent="WIyWlLk6GJQsqaUBKTNV-1" source="e1glwPQ_6rmeAgvSiWPn-5" target="e1glwPQ_6rmeAgvSiWPn-12">
          <mxGeometry relative="1" as="geometry" />
        </mxCell>
        <mxCell id="e1glwPQ_6rmeAgvSiWPn-5" value="is index less than length of numbers?" style="rhombus;whiteSpace=wrap;html=1;" vertex="1" parent="WIyWlLk6GJQsqaUBKTNV-1">
          <mxGeometry x="220" y="290" width="180" height="90" as="geometry" />
        </mxCell>
        <mxCell id="e1glwPQ_6rmeAgvSiWPn-6" value="True" style="endArrow=classic;html=1;rounded=0;exitX=0.583;exitY=1.033;exitDx=0;exitDy=0;exitPerimeter=0;" edge="1" parent="WIyWlLk6GJQsqaUBKTNV-1" source="e1glwPQ_6rmeAgvSiWPn-4">
          <mxGeometry width="50" height="50" relative="1" as="geometry">
            <mxPoint x="350" y="270" as="sourcePoint" />
            <mxPoint x="320" y="290" as="targetPoint" />
          </mxGeometry>
        </mxCell>
        <mxCell id="e1glwPQ_6rmeAgvSiWPn-7" value="" style="endArrow=classic;html=1;rounded=0;exitX=1;exitY=0.5;exitDx=0;exitDy=0;" edge="1" parent="WIyWlLk6GJQsqaUBKTNV-1" source="e1glwPQ_6rmeAgvSiWPn-4">
          <mxGeometry width="50" height="50" relative="1" as="geometry">
            <mxPoint x="370" y="260" as="sourcePoint" />
            <mxPoint x="480" y="270" as="targetPoint" />
          </mxGeometry>
        </mxCell>
        <mxCell id="e1glwPQ_6rmeAgvSiWPn-22" value="False" style="edgeLabel;html=1;align=center;verticalAlign=middle;resizable=0;points=[];" vertex="1" connectable="0" parent="e1glwPQ_6rmeAgvSiWPn-7">
          <mxGeometry x="-0.2469" relative="1" as="geometry">
            <mxPoint x="1" as="offset" />
          </mxGeometry>
        </mxCell>
        <mxCell id="e1glwPQ_6rmeAgvSiWPn-10" value="" style="edgeStyle=orthogonalEdgeStyle;rounded=0;orthogonalLoop=1;jettySize=auto;html=1;" edge="1" parent="WIyWlLk6GJQsqaUBKTNV-1" source="e1glwPQ_6rmeAgvSiWPn-8" target="e1glwPQ_6rmeAgvSiWPn-9">
          <mxGeometry relative="1" as="geometry" />
        </mxCell>
        <mxCell id="e1glwPQ_6rmeAgvSiWPn-8" value="Print sum" style="rounded=1;whiteSpace=wrap;html=1;" vertex="1" parent="WIyWlLk6GJQsqaUBKTNV-1">
          <mxGeometry x="480" y="240" width="80" height="60" as="geometry" />
        </mxCell>
        <mxCell id="e1glwPQ_6rmeAgvSiWPn-9" value="End" style="ellipse;whiteSpace=wrap;html=1;rounded=1;" vertex="1" parent="WIyWlLk6GJQsqaUBKTNV-1">
          <mxGeometry x="620" y="240" width="120" height="60" as="geometry" />
        </mxCell>
        <mxCell id="e1glwPQ_6rmeAgvSiWPn-14" style="edgeStyle=orthogonalEdgeStyle;rounded=0;orthogonalLoop=1;jettySize=auto;html=1;" edge="1" parent="WIyWlLk6GJQsqaUBKTNV-1" source="e1glwPQ_6rmeAgvSiWPn-12">
          <mxGeometry relative="1" as="geometry">
            <mxPoint x="310" y="400" as="targetPoint" />
          </mxGeometry>
        </mxCell>
        <mxCell id="e1glwPQ_6rmeAgvSiWPn-16" value="" style="edgeStyle=orthogonalEdgeStyle;rounded=0;orthogonalLoop=1;jettySize=auto;html=1;" edge="1" parent="WIyWlLk6GJQsqaUBKTNV-1" source="e1glwPQ_6rmeAgvSiWPn-12" target="e1glwPQ_6rmeAgvSiWPn-15">
          <mxGeometry relative="1" as="geometry" />
        </mxCell>
        <mxCell id="e1glwPQ_6rmeAgvSiWPn-12" value="square = num(index) * num(index)&lt;br&gt;sum = sum + square" style="whiteSpace=wrap;html=1;" vertex="1" parent="WIyWlLk6GJQsqaUBKTNV-1">
          <mxGeometry x="250" y="400" width="120" height="50" as="geometry" />
        </mxCell>
        <mxCell id="e1glwPQ_6rmeAgvSiWPn-15" value="index + 1" style="whiteSpace=wrap;html=1;" vertex="1" parent="WIyWlLk6GJQsqaUBKTNV-1">
          <mxGeometry x="250" y="480" width="120" height="20" as="geometry" />
        </mxCell>
        <mxCell id="e1glwPQ_6rmeAgvSiWPn-20" value="" style="endArrow=classic;html=1;rounded=0;exitX=0;exitY=0.5;exitDx=0;exitDy=0;entryX=0;entryY=0.5;entryDx=0;entryDy=0;" edge="1" parent="WIyWlLk6GJQsqaUBKTNV-1" source="e1glwPQ_6rmeAgvSiWPn-15" target="e1glwPQ_6rmeAgvSiWPn-5">
          <mxGeometry width="50" height="50" relative="1" as="geometry">
            <mxPoint x="250" y="406.5" as="sourcePoint" />
            <mxPoint x="100" y="330" as="targetPoint" />
            <Array as="points">
              <mxPoint x="190" y="490" />
              <mxPoint x="100" y="490" />
              <mxPoint x="100" y="335" />
            </Array>
          </mxGeometry>
        </mxCell>
        <mxCell id="e1glwPQ_6rmeAgvSiWPn-23" value="While loop condition" style="text;html=1;strokeColor=none;fillColor=none;align=center;verticalAlign=middle;whiteSpace=wrap;rounded=0;" vertex="1" parent="WIyWlLk6GJQsqaUBKTNV-1">
          <mxGeometry x="130" y="280" width="60" height="30" as="geometry" />
        </mxCell>
        <mxCell id="e1glwPQ_6rmeAgvSiWPn-25" value="" style="endArrow=none;dashed=1;html=1;rounded=0;entryX=0.35;entryY=0.156;entryDx=0;entryDy=0;entryPerimeter=0;exitX=1;exitY=0.5;exitDx=0;exitDy=0;" edge="1" parent="WIyWlLk6GJQsqaUBKTNV-1" source="e1glwPQ_6rmeAgvSiWPn-23" target="e1glwPQ_6rmeAgvSiWPn-5">
          <mxGeometry width="50" height="50" relative="1" as="geometry">
            <mxPoint x="180" y="310" as="sourcePoint" />
            <mxPoint x="230" y="260" as="targetPoint" />
          </mxGeometry>
        </mxCell>
      </root>
    </mxGraphModel>
  </diagram>
</mxfile>
